<svg xmlns="http://www.w3.org/2000/svg" width="1600" height="900" viewBox="0 0 1600 900" role="img" aria-labelledby="title desc">
  <title id="title">Cloud Strategy Graphic</title>
  <desc id="desc">Abstract cloud architecture graphic for cloud strategy content.</desc>
  <defs>
    <linearGradient id="bg" x1="0" y1="0" x2="1" y2="1">
      <stop offset="0%" stop-color="#1b3f73" />
      <stop offset="100%" stop-color="#5aa2f1" />
    </linearGradient>
  </defs>
  <rect width="1600" height="900" fill="url(#bg)" />
  <path d="M520 560h560c88 0 160-72 160-160s-72-160-160-160c-20 0-39 3-57 10-34-58-95-96-164-96-96 0-175 74-183 168-13-4-27-6-41-6-76 0-138 62-138 138s62 106 138 106z" fill="#ffffff2a" stroke="#edf5ff" stroke-width="6"/>
  <g stroke="#dcecff" stroke-width="6" stroke-linecap="round">
    <path d="M660 610v70"/>
    <path d="M800 610v70"/>
    <path d="M940 610v70"/>
  </g>
  <text x="800" y="780" text-anchor="middle" fill="#f4f8ff" font-family="Inter, Arial, sans-serif" font-size="58" font-weight="700">Cloud Strategy</text>
</svg>
