<svg xmlns="http://www.w3.org/2000/svg" viewBox="0 0 24 24" role="img" aria-label="GitHub placeholder icon">
  <rect width="24" height="24" rx="4" fill="#0b1d3a"/>
  <path fill="#ffffff" d="M12 4.2a7.8 7.8 0 0 0-2.5 15.2c.4.1.5-.2.5-.4v-1.5c-2.1.5-2.6-.9-2.6-.9-.4-1-.9-1.2-.9-1.2-.7-.5.1-.5.1-.5.8.1 1.2.8 1.2.8.7 1.2 1.9.9 2.4.7.1-.5.3-.9.6-1.1-1.7-.2-3.7-.8-3.7-4 0-.8.3-1.6.9-2.2-.1-.2-.4-1 .1-2.1 0 0 .7-.2 2.2.8a7.3 7.3 0 0 1 4 0c1.5-1 2.2-.8 2.2-.8.4 1.1.2 1.9.1 2.1.5.6.9 1.3.9 2.2 0 3.2-2 3.8-3.7 4 .3.2.6.8.6 1.5V19c0 .2.1.5.5.4A7.8 7.8 0 0 0 12 4.2z"/>
</svg>
